# xmcd
#
# Track frame offsets:
#	150
#	3753
#	10822
#	23044
#	38213
#	51310
#	64850
#	82576
#	93935
#	111823
#	129336
#	149091
#
# Disc length: 2235 seconds
#
# Revision: 1
# Processed by: cddbd v1.5.1PL0 Copyright (c) Steve Scherf et al.
# Submitted via: EasyCDDAExtractor 8.0.2.1
#
DISCID=8e08b90c
DTITLE=Alice Cooper - Trump Marina Atlantic City 02-10-99 Disc 1
DYEAR=1999
DGENRE=Hard Rock
TTITLE0=Intro
TTITLE1=Hello Hurray 
TTITLE2=Sideshow
TTITLE3=Billion Dollar Babies 
TTITLE4=No More Mr Nice Guy 
TTITLE5=Be My Lover 
TTITLE6=Lost In America 
TTITLE7=Is It My Body
TTITLE8=I'm Eighteen 
TTITLE9=From The Inside 
TTITLE10=Only Women Bleed 
TTITLE11=Steven
EXTD=
EXTT0=
EXTT1=
EXTT2=
EXTT3=
EXTT4=
EXTT5=
EXTT6=
EXTT7=
EXTT8=
EXTT9=
EXTT10=
EXTT11=
PLAYORDER=
